name C:\Users\u0101727\Documents\MyRepositories\paper-ad\predictivesimulations_2d/Results/PredSim_2D/IK_c26.mot
datacolumns 11
datarows 21
range 1.27591405 1.46778082
endheader
time	pelvis_tilt	pelvis_tx	pelvis_ty	hip_flexion_l	hip_flexion_r	knee_angle_l	knee_angle_r	ankle_angle_l	ankle_angle_r	lumbar_extension	
          1.27591405	        -15.10129403	          1.69364253	          0.90064784	         33.19169665	         10.36747003	        -37.56706052	         -7.29275870	         15.70269910	         11.30440632	          9.41907156	
          1.28550739	        -15.10061630	          1.70562977	          0.89978928	         34.16023792	          9.59175305	        -36.09396476	         -7.34040410	         15.98856809	         11.31471634	          9.37921210	
          1.29510073	        -15.10101385	          1.71767257	          0.89887276	         35.06758848	          8.83369892	        -34.50427773	         -7.42379894	         16.19352538	         11.31277831	          9.34261247	
          1.30469406	        -15.10287250	          1.72977746	          0.89789717	         35.91025778	          8.09227255	        -32.80589948	         -7.54193925	         16.32668506	         11.30220943	          9.30958402	
          1.31428740	        -15.10651212	          1.74195256	          0.89686137	         36.68368955	          7.36712788	        -31.01033648	         -7.69513064	         16.39682584	         11.28385124	          9.28051093	
          1.32388074	        -15.11200531	          1.75420984	          0.89576803	         37.38118687	          6.65914761	        -29.14362211	         -7.88700731	         16.41208990	         11.25608661	          9.25598292	
          1.33347408	        -15.11938421	          1.76656750	          0.89462956	         37.98982783	          5.97035079	        -27.23982215	         -8.12376742	         16.37976470	         11.21285306	          9.23730048	
          1.34306742	        -15.12867199	          1.77904701	          0.89346763	         38.49386050	          5.30389320	        -25.33111715	         -8.41251992	         16.30624629	         11.14172126	          9.22617976	
          1.35266076	        -15.13955194	          1.79166715	          0.89230475	         38.88386523	          4.66418784	        -23.44535720	         -8.76173651	         16.19692523	         11.02640434	          9.22380453	
          1.36225410	        -15.15123277	          1.80444247	          0.89115889	         39.15969812	          4.05648067	        -21.60435981	         -9.18122849	         16.05593027	         10.85036878	          9.23058127	
          1.37184744	        -15.16250493	          1.81738583	          0.89004431	         39.32823715	          3.48605226	        -19.82971178	         -9.68129322	         15.88586594	         10.59932578	          9.24643776	
          1.38144077	        -15.17214555	          1.83051108	          0.88897319	         39.39672340	          2.95779530	        -18.13632631	        -10.27162910	         15.68793090	         10.26043165	          9.27146137	
          1.39103411	        -15.17900851	          1.84383269	          0.88795470	         39.37198829	          2.47614435	        -16.53604047	        -10.96081254	         15.46202558	          9.82154655	          9.30589012	
          1.40062745	        -15.18183727	          1.85736485	          0.88699411	         39.26163326	          2.04571210	        -15.04592886	        -11.75784060	         15.20687160	          9.27182871	          9.34986318	
          1.41022079	        -15.17936670	          1.87112197	          0.88609247	         39.07071386	          1.67200977	        -13.68058811	        -12.67299548	         14.92045428	          8.60031910	          9.40367214	
          1.41981413	        -15.17019235	          1.88511765	          0.88524550	         38.80399369	          1.36094703	        -12.45985846	        -13.71720099	         14.59989657	          7.79658301	          9.46757006	
          1.42940747	        -15.15275803	          1.89936365	          0.88444205	         38.46679244	          1.11817678	        -11.41248628	        -14.90065848	         14.24140228	          6.85311321	          9.54171069	
          1.43900081	        -15.12562304	          1.91387107	          0.88366302	         38.05942170	          0.94848496	        -10.56930744	        -16.23266298	         13.84061119	          5.76992917	          9.62668520	
          1.44859415	        -15.08759614	          1.92864817	          0.88287687	         37.57485121	          0.85480069	         -9.96395626	        -17.72619186	         13.39253936	          4.56937272	          9.72355260	
          1.45818748	        -15.03852172	          1.94368866	          0.88203979	         36.99508762	          0.83985287	         -9.64460861	        -19.38718984	         12.89239005	          3.26497476	          9.83345765	
          1.46778082	        -14.98095652	          1.95897555	          0.88117518	         36.25204826	          0.91087525	         -9.73182518	        -21.21255089	         12.33809612	          1.83677603	          9.96037567	
